<mxfile host="app.diagrams.net" agent="Mozilla/5.0 (X11; Linux x86_64) AppleWebKit/537.36 (KHTML, like Gecko) Chrome/128.0.0.0 Safari/537.36" version="24.7.12">
  <diagram name="第 1 页" id="NMvOj_CdW_HVdvylvzcA">
    <mxGraphModel dx="1605" dy="893" grid="1" gridSize="10" guides="1" tooltips="1" connect="1" arrows="1" fold="1" page="1" pageScale="1" pageWidth="827" pageHeight="1169" math="0" shadow="0">
      <root>
        <mxCell id="0" />
        <mxCell id="1" parent="0" />
        <mxCell id="r2VvSXRPSQtg-TGQY2Db-1" value="Read Time&lt;div&gt;20ms&lt;/div&gt;" style="rounded=0;whiteSpace=wrap;html=1;" vertex="1" parent="1">
          <mxGeometry y="180" width="120" height="40" as="geometry" />
        </mxCell>
        <mxCell id="r2VvSXRPSQtg-TGQY2Db-2" value="&lt;div&gt;Preprocess&lt;/div&gt;&lt;div&gt;25ms&lt;/div&gt;" style="rounded=0;whiteSpace=wrap;html=1;" vertex="1" parent="1">
          <mxGeometry x="120" y="180" width="110" height="40" as="geometry" />
        </mxCell>
        <mxCell id="r2VvSXRPSQtg-TGQY2Db-3" value="&lt;div&gt;Infer&lt;/div&gt;&lt;div&gt;6ms&lt;/div&gt;" style="rounded=0;whiteSpace=wrap;html=1;" vertex="1" parent="1">
          <mxGeometry x="230" y="180" width="60" height="40" as="geometry" />
        </mxCell>
        <mxCell id="r2VvSXRPSQtg-TGQY2Db-4" value="postprocess&lt;br&gt;30ms" style="rounded=0;whiteSpace=wrap;html=1;" vertex="1" parent="1">
          <mxGeometry x="290" y="180" width="110" height="40" as="geometry" />
        </mxCell>
        <mxCell id="r2VvSXRPSQtg-TGQY2Db-5" value="track+post&lt;br&gt;20ms" style="rounded=0;whiteSpace=wrap;html=1;" vertex="1" parent="1">
          <mxGeometry x="390" y="180" width="110" height="40" as="geometry" />
        </mxCell>
        <mxCell id="r2VvSXRPSQtg-TGQY2Db-11" value="Read Time&lt;div&gt;20ms&lt;/div&gt;" style="rounded=0;whiteSpace=wrap;html=1;" vertex="1" parent="1">
          <mxGeometry x="290" y="220" width="100" height="40" as="geometry" />
        </mxCell>
        <mxCell id="r2VvSXRPSQtg-TGQY2Db-12" value="&lt;div&gt;Preprocess&lt;/div&gt;&lt;div&gt;25ms&lt;/div&gt;" style="rounded=0;whiteSpace=wrap;html=1;" vertex="1" parent="1">
          <mxGeometry x="390" y="220" width="110" height="40" as="geometry" />
        </mxCell>
        <mxCell id="r2VvSXRPSQtg-TGQY2Db-13" value="&lt;div&gt;Infer&lt;/div&gt;&lt;div&gt;6ms&lt;/div&gt;" style="rounded=0;whiteSpace=wrap;html=1;" vertex="1" parent="1">
          <mxGeometry x="500" y="220" width="60" height="40" as="geometry" />
        </mxCell>
        <mxCell id="r2VvSXRPSQtg-TGQY2Db-14" value="postprocess&lt;br&gt;30ms" style="rounded=0;whiteSpace=wrap;html=1;" vertex="1" parent="1">
          <mxGeometry x="560" y="220" width="110" height="40" as="geometry" />
        </mxCell>
        <mxCell id="r2VvSXRPSQtg-TGQY2Db-15" value="track+post&lt;br&gt;20ms" style="rounded=0;whiteSpace=wrap;html=1;" vertex="1" parent="1">
          <mxGeometry x="660" y="220" width="90" height="40" as="geometry" />
        </mxCell>
        <mxCell id="r2VvSXRPSQtg-TGQY2Db-16" value="Read Time&lt;div&gt;20ms&lt;/div&gt;" style="rounded=0;whiteSpace=wrap;html=1;" vertex="1" parent="1">
          <mxGeometry x="560" y="260" width="80" height="40" as="geometry" />
        </mxCell>
        <mxCell id="r2VvSXRPSQtg-TGQY2Db-17" value="&lt;div&gt;Preprocess&lt;/div&gt;&lt;div&gt;25ms&lt;/div&gt;" style="rounded=0;whiteSpace=wrap;html=1;" vertex="1" parent="1">
          <mxGeometry x="640" y="260" width="110" height="40" as="geometry" />
        </mxCell>
        <mxCell id="r2VvSXRPSQtg-TGQY2Db-18" value="&lt;div&gt;Infer&lt;/div&gt;&lt;div&gt;6ms&lt;/div&gt;" style="rounded=0;whiteSpace=wrap;html=1;" vertex="1" parent="1">
          <mxGeometry x="750" y="260" width="60" height="40" as="geometry" />
        </mxCell>
        <mxCell id="r2VvSXRPSQtg-TGQY2Db-19" value="postprocess&lt;br&gt;30ms" style="rounded=0;whiteSpace=wrap;html=1;" vertex="1" parent="1">
          <mxGeometry x="810" y="260" width="110" height="40" as="geometry" />
        </mxCell>
        <mxCell id="r2VvSXRPSQtg-TGQY2Db-20" value="track+post&lt;br&gt;20ms" style="rounded=0;whiteSpace=wrap;html=1;" vertex="1" parent="1">
          <mxGeometry x="910" y="260" width="110" height="40" as="geometry" />
        </mxCell>
        <mxCell id="r2VvSXRPSQtg-TGQY2Db-21" value="Read Time&lt;div&gt;20ms&lt;/div&gt;" style="rounded=0;whiteSpace=wrap;html=1;" vertex="1" parent="1">
          <mxGeometry x="810" y="300" width="117" height="40" as="geometry" />
        </mxCell>
        <mxCell id="r2VvSXRPSQtg-TGQY2Db-22" value="&lt;div&gt;Preprocess&lt;/div&gt;&lt;div&gt;25ms&lt;/div&gt;" style="rounded=0;whiteSpace=wrap;html=1;" vertex="1" parent="1">
          <mxGeometry x="927" y="300" width="93" height="40" as="geometry" />
        </mxCell>
        <mxCell id="r2VvSXRPSQtg-TGQY2Db-23" value="&lt;div&gt;Infer&lt;/div&gt;&lt;div&gt;6ms&lt;/div&gt;" style="rounded=0;whiteSpace=wrap;html=1;" vertex="1" parent="1">
          <mxGeometry x="1020" y="300" width="60" height="40" as="geometry" />
        </mxCell>
        <mxCell id="r2VvSXRPSQtg-TGQY2Db-24" value="postprocess&lt;br&gt;30ms" style="rounded=0;whiteSpace=wrap;html=1;" vertex="1" parent="1">
          <mxGeometry x="1080" y="300" width="110" height="40" as="geometry" />
        </mxCell>
        <mxCell id="r2VvSXRPSQtg-TGQY2Db-25" value="track+post&lt;br&gt;20ms" style="rounded=0;whiteSpace=wrap;html=1;" vertex="1" parent="1">
          <mxGeometry x="1170" y="300" width="110" height="40" as="geometry" />
        </mxCell>
      </root>
    </mxGraphModel>
  </diagram>
</mxfile>
